<?xml version="1.0" encoding="utf-8"?>
<!-- Generator: Adobe Illustrator 23.0.3, SVG Export Plug-In . SVG Version: 6.00 Build 0)  -->
<svg version="1.1" id="Layer_1" xmlns="http://www.w3.org/2000/svg" xmlns:xlink="http://www.w3.org/1999/xlink" x="0px" y="0px"
	 viewBox="0 0 666.76 385.32" style="enable-background:new 0 0 666.76 385.32;" xml:space="preserve">
<style type="text/css">
	.st0{fill:#FFFFFF;}
</style>
<path class="st0" d="M662.13,161.68c-0.24-0.52-0.5-1.04-0.76-1.55c0.33-1.81,0.62-3.69,0.87-5.68c0.43-3.41,0.72-6.9,0.88-10.4
	c0.14-3.15,0.19-6.3,0.16-9.37c-0.04-3.8-0.26-7.41-0.65-10.75l-0.14-1.22l-0.13-1.11l-0.25-1.08l-0.27-1.19
	c-0.33-1.43-0.7-2.93-1.1-4.47c-1.07-4.06-2.6-8.06-4.56-11.91c-2.3-4.53-5.3-8.83-8.89-12.74c-3.92-4.27-8.61-7.98-13.95-11.03
	c-5.92-3.48-12.59-6.17-19.82-7.99c-5.26-1.32-10.54-2.3-15.71-2.9l-0.55-0.06l-0.5-0.06l-0.5-0.03l-0.55-0.04
	c-1.58-0.1-3.18-0.16-4.73-0.16c-3.88,0-7.73,0.33-11.43,0.97c-4.97,0.86-9.74,2.23-14.17,4.07c-4.39,1.83-8.46,4.12-12.15,6.77
	c-2.11-0.27-4.25-0.42-6.42-0.42h0c-4.27,0-8.61,0.54-12.92,1.61l-0.17,0.04l-0.16,0.04l-0.16,0.04l-0.17,0.05
	c-5.33,1.41-10.68,3.1-15.91,5c-4.67,1.7-9.29,3.51-13.74,5.38c-4.49,1.89-8.84,3.85-12.93,5.83c-0.97,0.47-1.92,0.94-2.86,1.39
	c-3.83-0.63-7.54-1.02-11.08-1.15c-0.92-0.04-1.84-0.06-2.73-0.06c-3.23,0-6.38,0.29-9.43,0.84c-0.23-0.3-0.47-0.6-0.71-0.89
	c2.06-4.33,3.66-8.76,4.81-13.27c3.33-12.73,2.03-25.92-3.86-39.2l-0.25-0.57l-0.23-0.52l-0.26-0.51l-0.29-0.56
	c-4.23-8.24-9.43-15.34-15.45-21.12c-4.31-4.14-8.99-7.94-13.89-11.3l-0.48-0.33l-0.44-0.3l-0.45-0.28l-0.5-0.3
	c-10-6.1-20.92-9.19-32.44-9.19c-1.34,0-2.7,0.04-4.05,0.13c-8.9,0.58-17.8,2.73-26.47,6.39c-5.23,2.21-10.39,4.9-15.41,8.02
	c-3.81-0.93-7.77-1.42-11.83-1.42c-4.27,0-8.62,0.54-12.93,1.61l-0.16,0.04l-0.15,0.04l-0.15,0.04l-0.17,0.04
	c-5.33,1.41-10.68,3.1-15.9,5c-4.66,1.7-9.29,3.51-13.75,5.39c-4.49,1.89-8.84,3.85-12.92,5.82c-1.29,0.62-2.54,1.24-3.76,1.84
	c-3.53-0.86-7.15-1.41-10.86-1.62c-1.31-0.07-2.63-0.11-3.92-0.11h0c-5.91,0-11.93,0.76-17.89,2.27
	c-5.99,1.52-11.97,3.73-17.78,6.56c-4.66,2.28-9.28,4.87-13.74,7.72c-0.8,0.51-1.59,1.03-2.38,1.56
	c-5.29-1.29-10.45-2.02-15.38-2.18c-0.62-0.02-1.22-0.03-1.82-0.03c-8.97,0-17.26,2.09-24.69,6.16c-2.53-4.59-5.67-8.95-9.37-12.98
	c-4.51-4.92-9.99-9.23-16.3-12.81c-7.41-4.37-15.85-7.77-25.11-10.1c-7.27-1.83-14.57-3.18-21.69-4L101,13.33l-0.5-0.06l-0.5-0.03
	l-0.55-0.04c-1.97-0.13-3.95-0.19-5.88-0.19c-4.74,0-9.41,0.39-13.88,1.17c-6.11,1.06-11.91,2.72-17.25,4.94
	c-5.76,2.4-11.03,5.4-15.7,8.92c-3.6,2.72-6.68,5.45-9.43,8.34c-5.02,5.01-9.76,10.73-14.08,16.99
	c-4.33,6.28-8.16,12.94-11.38,19.79c-3.19,6.79-5.82,13.77-7.8,20.74c-2.18,7.66-3.46,15.1-3.8,22.11
	c-0.68,9.07,0.06,17.88,2.2,26.19c1.77,6.82,4.35,13.26,7.71,19.21c-7.42,10.9-10.04,24.24-7.03,37.35l0.28,1.2l0.25,1.09l0.37,1.05
	l0.41,1.16c2.65,7.56,7.27,14.29,13.72,20.02c5.33,4.73,11.14,8.08,15.15,10.21c14.97,8.51,29.63,13.93,43.57,16.11
	c5.67,0.89,11.41,1.34,17.06,1.34c8.89,0,17.78-1.12,26.43-3.31c0.17-0.04,0.33-0.09,0.5-0.13c0.16,1.82,0.32,3.66,0.48,5.53
	c0.72,8.08,1.57,16.4,2.52,24.73c0.93,8.1,1.89,16.06,2.87,23.67c1.01,7.84,2.09,15.26,3.21,22.04c1.11,6.67,2.17,12.29,3.26,17.16
	c2.06,11.3,6.95,20.79,14.54,28.2c6.9,6.74,15.77,11.4,26.35,13.84c4.44,1.06,9.11,1.79,13.9,2.19c3.56,0.3,7.16,0.45,10.69,0.45
	c0.46,0,0.93,0,1.39-0.01l0.11,0l0.1,0l0.1,0l0.11,0c13.76-0.29,25.15-4.76,33.87-13.28c2.75-2.69,5.11-5.68,7.07-8.91
	c1.39,0.04,2.81,0.06,4.25,0.06c1.44,0,2.93-0.02,4.44-0.06c5.39-0.06,10.26-0.76,14.89-2.15c2.9-0.86,5.66-1.97,8.27-3.31
	c1.05,0.32,2.13,0.62,3.21,0.88c4.89,1.32,10.15,2.14,15.62,2.46c3.12,0.18,6.25,0.27,9.31,0.27c0.52,0,1.04,0,1.55-0.01
	c16.75-0.07,30.82-6.93,39.63-19.31c4.75-6.69,7.68-14.26,8.98-23.16l0.23-1.6l0.21-1.45l0-1.47l0-1.62c0-2.73,0.05-6.11,0.16-10.09
	c0.75,0.02,1.49,0.03,2.24,0.03c0.44,0,0.89,0,1.34-0.01c4.31-0.07,8.6-0.36,12.74-0.86c8.78-1.07,16.84-3.4,23.99-6.95
	c6.91-3.43,13.12-8.1,18.53-13.88c1.99,0.65,4.01,1.23,6.11,1.68c4.19,0.95,8.31,1.62,12.22,1.99c2.78,0.27,5.81,0.49,8.99,0.66
	l0.3,0.02l0.28,0.01l0.28,0.01l0.3,0.01c0.56,0.01,1.12,0.02,1.66,0.02c10.18,0,19.33-2.47,27.19-7.33l0.05-0.03l0.07-0.04
	c2.29-1.43,4.84-3.31,7.39-5.7c1.77,0.25,3.54,0.45,5.33,0.56c2.14,0.13,4.35,0.24,6.57,0.33l0.4,0.01l0.37,0.01h0.37h0.4
	c10.77,0,20.13-2.84,27.9-8.44c1.57,0.19,3.16,0.32,4.76,0.38c0.62,0.02,1.17,0.03,1.73,0.03c7.83,0,15.56-1.89,23.63-5.78
	c3.89-1.68,7.94-3.47,12.04-5.3c4.33-1.93,8.55-3.8,12.54-5.54c0.78-0.34,1.54-0.69,2.28-1.05c1.3,0.27,2.59,0.51,3.87,0.71
	c4.38,0.69,8.81,1.04,13.18,1.04c6.89,0,13.78-0.86,20.48-2.56c8.23-2.05,15.33-4.91,21.71-8.74c6.18-3.71,11.57-8.04,16.02-12.86
	c4.86-5.26,8.71-11.05,11.44-17.21c1.85-4.17,3.22-8.15,4.19-12.16C668.08,183.96,667.07,172.22,662.13,161.68z M646.46,186.75
	c-0.18,1.34-0.45,2.68-0.81,4.02c-0.34,1.44-0.76,2.89-1.27,4.37c-0.51,1.48-1.1,2.98-1.79,4.53c-1.84,4.15-4.49,8.11-7.86,11.76
	c-1.18,1.28-2.47,2.53-3.86,3.72c-2.31,1.99-4.91,3.85-7.75,5.56c-2.33,1.4-4.83,2.63-7.53,3.71c-2.7,1.08-5.61,2-8.76,2.78
	c0,0,0,0-0.01,0c-0.92,0.23-1.84,0.44-2.76,0.63c-0.17,0.04-0.34,0.07-0.51,0.1c-0.94,0.19-1.88,0.36-2.83,0.5
	c-0.03,0-0.06,0.01-0.1,0.01c-2.04,0.31-4.1,0.51-6.16,0.62c0,0,0,0,0,0l0,0c-1.08,0.06-2.15,0.09-3.23,0.09
	c-3.33,0-6.73-0.27-10.08-0.79c-3.27-0.51-6.62-1.34-10.03-2.46c-1.9,1.48-4.26,2.94-7.23,4.22c-4.04,1.76-8.32,3.65-12.7,5.61
	c-2.56,1.15-5.1,2.27-7.59,3.36c-0.24,0.1-0.48,0.21-0.71,0.31c-1.32,0.58-2.64,1.15-3.92,1.71c-0.61,0.3-1.21,0.58-1.81,0.84
	c-0.18,0.08-0.36,0.15-0.54,0.23c-0.44,0.19-0.87,0.36-1.31,0.53c-0.18,0.07-0.36,0.14-0.54,0.21c-0.57,0.21-1.14,0.41-1.7,0.59
	c-3.23,1.04-6.34,1.55-9.39,1.55c-0.32,0-0.64-0.01-0.99-0.02c-3.82-0.14-7.47-0.85-10.85-2.1c-0.22-0.08-0.44-0.17-0.66-0.25
	c-1.03,1.46-2.11,2.67-3.12,3.63l-0.03,0.03L508,246.4c-1.76,1.66-7.12,6.71-18.7,6.71h-0.4l-0.4-0.01
	c-2.05-0.08-4.08-0.18-6.05-0.3c-3.02-0.19-6.02-0.66-8.91-1.39c-2.02-0.48-3.84-1.11-5.47-1.82v0l0,0
	c-2.9,5.86-6.97,9.36-10.18,11.36l-0.03,0.02l-0.03,0.02c-1.73,1.07-3.6,1.95-5.59,2.62l0,0h0c-0.77,0.26-1.57,0.49-2.38,0.69
	c-0.23,0.06-0.46,0.1-0.69,0.15c-0.59,0.13-1.19,0.25-1.8,0.36c-0.28,0.05-0.57,0.09-0.85,0.13c-0.6,0.09-1.22,0.15-1.84,0.21
	c-0.27,0.02-0.53,0.05-0.8,0.07c-0.89,0.06-1.78,0.1-2.7,0.1h0l0,0c-0.38,0-0.76,0-1.16-0.01l-0.3-0.01l-0.3-0.02
	c-1.45-0.08-2.86-0.17-4.22-0.26c-0.68-0.05-1.35-0.1-2.01-0.16c-0.66-0.06-1.3-0.11-1.92-0.17c-0.71-0.07-1.42-0.15-2.15-0.24
	c-0.45-0.06-0.9-0.13-1.36-0.19c-0.25-0.04-0.49-0.07-0.74-0.11c-0.6-0.09-1.21-0.2-1.82-0.31c-0.08-0.01-0.16-0.03-0.24-0.04
	c-1.15-0.21-2.32-0.44-3.5-0.71c-6.44-1.38-12.02-4.16-16.64-8.25c-1.58,3.11-3.35,6.07-5.36,8.86l-0.4,0.56l-0.44,0.54
	c-1.82,2.22-3.79,4.22-5.88,6.02l0,0c0,0,0,0,0,0c-0.68,0.58-1.37,1.14-2.08,1.68c-0.05,0.04-0.1,0.07-0.14,0.11
	c-0.64,0.48-1.29,0.95-1.96,1.4c-0.11,0.07-0.22,0.15-0.33,0.22c-0.61,0.4-1.23,0.79-1.86,1.16c-0.15,0.09-0.3,0.18-0.45,0.27
	c-0.76,0.43-1.52,0.85-2.3,1.24c0,0,0,0,0,0c-0.34,0.17-0.69,0.32-1.04,0.49c-0.57,0.26-1.15,0.52-1.74,0.76
	c-1.07,0.44-2.16,0.86-3.29,1.24c-2.13,0.71-4.36,1.3-6.68,1.76c-1.55,0.31-3.14,0.56-4.77,0.76c-2.54,0.31-5.16,0.52-7.82,0.63
	c-0.95,0.04-1.9,0.07-2.85,0.09c-0.33,0.01-0.66,0.01-0.99,0.01c-0.51,0-1.01-0.03-1.51-0.05l0,0c-3.97-0.11-7.84-0.61-11.56-1.56
	c-2.76-0.71-5.53-1.69-8.27-2.92c0,0.01,0,0.03,0,0.04c-0.32,7.19-0.59,13.92-0.78,20c-0.01,0.36-0.02,0.71-0.03,1.06
	c-0.02,0.67-0.04,1.32-0.06,1.96c0,0.02,0,0.04,0,0.06c-0.02,0.62-0.03,1.23-0.05,1.83c0,0.04,0,0.08,0,0.12
	c-0.01,0.57-0.03,1.13-0.04,1.68c0,0.08,0,0.16-0.01,0.24c-0.01,0.51-0.02,1-0.03,1.49c0,0.13,0,0.25-0.01,0.37
	c-0.01,0.43-0.01,0.86-0.02,1.27c0,0.19,0,0.36-0.01,0.55c0,0.35-0.01,0.69-0.01,1.03c0,0.26,0,0.51-0.01,0.76
	c0,0.25,0,0.5-0.01,0.74c0,0.49,0,0.96,0,1.42l0,1.62l-0.23,1.6c-0.42,2.85-1.07,5.45-1.98,7.85c-0.91,2.4-2.07,4.59-3.51,6.61
	c-0.98,1.38-2.25,2.84-3.82,4.22c-3,2.64-7.18,5.02-12.95,6.08c-2.03,0.38-4.26,0.59-6.7,0.6c-0.47,0.01-0.94,0.01-1.41,0.01l0,0h0
	c-1.33,0-2.69-0.02-4.06-0.06c-1.37-0.04-2.74-0.1-4.11-0.18c-2.09-0.12-4.13-0.34-6.1-0.65c-1.97-0.31-3.86-0.72-5.68-1.21
	c-0.99-0.24-1.95-0.51-2.89-0.81s-1.84-0.63-2.72-0.99c-1.2-0.49-2.33-1.07-3.43-1.67c-0.51-0.28-1.03-0.56-1.52-0.87
	c-0.22,0.23-0.44,0.45-0.66,0.66l-0.03,0.02l-0.03,0.02c-1.13,1.09-2.36,2.06-3.67,2.92c-2.19,1.44-4.61,2.56-7.26,3.34
	c-2.84,0.85-5.95,1.28-9.51,1.31c-1.39,0.04-2.76,0.06-4.08,0.06l0,0h0c-0.95,0-1.88-0.01-2.8-0.03c-1.83-0.04-3.61-0.12-5.3-0.24
	c-0.85-0.06-1.68-0.13-2.49-0.21l-0.26-0.03l-0.26-0.03c-2.3-0.28-4.49-0.71-6.51-1.27c-0.33,3.01-1.04,5.63-1.98,7.89
	c-0.31,0.75-0.65,1.46-1,2.14c-1.06,2.02-2.29,3.69-3.5,5.06c-0.2,0.23-0.4,0.45-0.6,0.66s-0.4,0.41-0.6,0.61
	c-0.69,0.68-1.92,1.88-3.86,3.13c-0.32,0.21-0.67,0.42-1.03,0.63c-3.27,1.88-8.21,3.69-15.43,3.84l-0.11,0l-0.11,0
	c-0.39,0-0.78,0.01-1.17,0.01l0,0h0c-2.97,0-6.01-0.13-9.03-0.38c-1.91-0.16-3.79-0.38-5.62-0.67s-3.63-0.64-5.38-1.06
	c-0.89-0.2-1.75-0.42-2.59-0.67c-1.68-0.48-3.26-1.04-4.75-1.68c-1.49-0.64-2.9-1.36-4.22-2.16c-0.66-0.4-1.3-0.82-1.92-1.26
	c-1.24-0.88-2.39-1.85-3.47-2.9c-3.48-3.4-6.03-7.62-7.63-12.6c-0.53-1.66-0.96-3.41-1.27-5.23c-0.52-2.3-1.04-4.8-1.56-7.54
	s-1.05-5.71-1.58-8.95c-0.14-0.82-0.27-1.65-0.4-2.48c-0.13-0.84-0.27-1.68-0.4-2.54c-0.68-4.39-1.34-9.02-1.98-13.84
	c-0.11-0.82-0.22-1.63-0.32-2.46c-0.24-1.88-0.48-3.78-0.72-5.7c-0.72-5.76-1.43-11.69-2.11-17.69c-0.23-2.04-0.46-4.08-0.68-6.12
	c-0.44-4.07-0.85-8.13-1.24-12.14c-0.19-2.01-0.38-4-0.55-5.98c-0.16-1.82-0.32-3.61-0.47-5.38c-0.52-6.01-0.98-11.77-1.37-17.16
	c-0.25-3.46-0.47-6.77-0.65-9.91l0,0v0c-0.32,0.2-0.63,0.4-0.96,0.59c-5.68,3.41-12.21,6.09-19.85,8.18
	c-0.82,0.22-1.64,0.45-2.48,0.66c0,0,0,0,0,0c-0.88,0.22-1.77,0.44-2.65,0.63c-1.77,0.39-3.56,0.73-5.35,1.02
	c-4.48,0.71-9.01,1.06-13.54,1.06c-3.46,0-6.97-0.21-10.47-0.62c-1.17-0.14-2.33-0.3-3.5-0.48c-3.63-0.57-7.34-1.42-11.13-2.54
	c-0.76-0.22-1.52-0.46-2.28-0.71c-1.52-0.49-3.06-1.03-4.61-1.61c-3.09-1.16-6.23-2.49-9.4-4s-6.38-3.18-9.61-5.03
	c-0.98-0.52-1.98-1.07-2.96-1.64c-6.93-3.99-13.73-9.31-16.67-17.7l-0.41-1.16l-0.28-1.2c-1.95-8.48,0.21-17.17,5.81-23.9
	c0.8-0.96,1.67-1.88,2.6-2.76l1.25-1.17l1.41-0.96c0.59-0.4,1.21-0.77,1.82-1.15c0.37-0.23,0.73-0.48,1.12-0.71
	c-1.33-1.37-2.6-2.8-3.8-4.29c-0.6-0.74-1.18-1.5-1.74-2.28c-0.56-0.77-1.1-1.56-1.63-2.36c-1.97-3.01-3.65-6.24-5.05-9.64
	c-1.04-2.53-1.92-5.15-2.62-7.86c-0.2-0.78-0.39-1.57-0.56-2.37c-0.17-0.8-0.32-1.6-0.45-2.41c-0.67-4.03-0.92-8.22-0.75-12.52
	c0.04-0.88,0.09-1.77,0.16-2.66c0.09-2.09,0.29-4.23,0.6-6.43c0.21-1.47,0.46-2.96,0.77-4.47c0.46-2.27,1.02-4.59,1.69-6.95
	c1.27-4.45,2.85-8.92,4.72-13.34c0.62-1.47,1.28-2.94,1.96-4.39c2.75-5.86,6.02-11.56,9.73-16.93c3.7-5.36,7.72-10.2,11.95-14.4
	c1.01-1.08,2.1-2.14,3.29-3.19c1.19-1.05,2.47-2.09,3.86-3.15c3.33-2.51,7.13-4.67,11.33-6.42c3.97-1.65,8.34-2.9,12.99-3.7
	c3.35-0.58,6.88-0.87,10.47-0.87c0.74,0,1.48,0.01,2.23,0.04c0.78,0.03,1.56,0.06,2.34,0.11l0.03,0l0.52,0.03l0.55,0.06
	c6.26,0.73,12.69,1.92,19.12,3.53c2.8,0.7,5.49,1.52,8.07,2.45c4.3,1.55,8.28,3.41,11.89,5.56c1.71,0.96,3.32,1.99,4.84,3.08
	c1.52,1.09,2.94,2.24,4.25,3.45c0.88,0.81,1.71,1.64,2.49,2.49c0.64,0.7,1.25,1.41,1.84,2.14c0.57,0.7,1.12,1.42,1.64,2.14
	c0,0,0,0,0,0l0,0c1.43,1.95,2.7,3.97,3.75,6.05c1.65,3.24,2.93,6.56,3.81,9.91c0.39,1.5,0.74,2.92,1.07,4.3l0,0v0
	c2.76,0.29,5.5,0.76,8.2,1.43c1.15,0.29,2.29,0.61,3.44,0.97c1.78-3.3,4.32-6.16,7.5-8.4l0,0c0,0,0,0,0,0
	c0.3-0.21,0.6-0.42,0.91-0.62c0.38-0.25,0.77-0.49,1.18-0.72c0.69-0.39,1.39-0.74,2.11-1.08c0.18-0.08,0.35-0.16,0.53-0.23
	c0.6-0.27,1.22-0.51,1.84-0.74c0.13-0.05,0.25-0.09,0.38-0.14c1.6-0.55,3.26-0.97,4.98-1.25c0,0,0,0,0,0l0,0
	c1.81-0.3,3.68-0.46,5.62-0.46c0.39,0,0.79,0.01,1.19,0.02c3.63,0.11,7.51,0.68,11.55,1.68c2.94,0.73,5.73,1.52,8.27,2.33
	c2.99-2.28,6.11-4.47,9.33-6.53c3.39-2.17,6.89-4.15,10.42-5.93c0,0,0,0,0,0c0.44-0.22,0.88-0.46,1.32-0.67
	c1.03-0.5,2.06-0.97,3.09-1.42c0.34-0.15,0.68-0.29,1.02-0.43c0.7-0.29,1.41-0.58,2.12-0.85c0.39-0.15,0.78-0.3,1.17-0.44
	c0.76-0.28,1.52-0.53,2.28-0.78c0.29-0.09,0.58-0.2,0.86-0.29c0,0,0,0,0,0l0,0c1.12-0.35,2.23-0.66,3.35-0.95
	c4.37-1.1,8.74-1.66,13-1.66h0c0.92,0,1.85,0.03,2.77,0.08c4.78,0.27,9.34,1.37,13.62,3.25l0.98-0.51c2.98-1.54,6.3-3.19,9.88-4.93
	c3.77-1.82,7.79-3.64,11.96-5.39c1.04-0.44,2.09-0.87,3.15-1.3c3.18-1.29,6.42-2.54,9.69-3.73c1.21-0.44,2.44-0.87,3.66-1.28
	c0.02-0.01,0.03-0.01,0.05-0.02c1.21-0.41,2.43-0.8,3.65-1.19c0,0,0,0,0,0l0,0c2.27-0.71,4.54-1.37,6.82-1.97l0.17-0.04l0.17-0.04
	c2.73-0.68,5.46-1.02,8.11-1.02c5.25,0,10.17,1.32,14.45,3.79c1.22-0.87,2.45-1.73,3.69-2.59c5.47-3.79,11.15-6.95,16.88-9.37
	c2.48-1.05,4.97-1.93,7.47-2.65c1.67-0.48,3.34-0.89,5-1.22c1.67-0.33,3.34-0.59,5.01-0.77c0.83-0.09,1.67-0.16,2.5-0.22
	c0.92-0.06,1.84-0.09,2.76-0.09c4.87,0,9.59,0.82,14.11,2.46c2.71,0.98,5.35,2.25,7.91,3.81l0.5,0.3l0.24,0.16l0.24,0.16
	c2,1.37,3.96,2.84,5.86,4.38c1.9,1.54,3.73,3.16,5.49,4.85c1.66,1.59,3.24,3.33,4.73,5.22c2.49,3.15,4.76,6.69,6.77,10.61l0.29,0.56
	l0.25,0.57c1.76,3.96,2.93,7.88,3.5,11.71c0.16,1.1,0.28,2.19,0.35,3.27c0.03,0.54,0.06,1.08,0.07,1.62
	c0.03,1.62-0.05,3.22-0.24,4.8s-0.49,3.15-0.9,4.7c-2,7.92-6.02,15.6-11.96,22.87c0.56,0.3,1.1,0.57,1.62,0.81l0.21,0.1h0l0.1,0.05
	l0.31,0.16c11.01,5.73,13.65,14.48,14.22,19.43c0.65,0.1,1.31,0.22,1.97,0.36c0.24,0.05,0.48,0.11,0.72,0.16
	c0.28-0.22,0.55-0.42,0.81-0.61c4.63-3.33,10.25-5.02,16.7-5.02c0.63,0,1.27,0.02,1.93,0.05c3.38,0.11,7.03,0.54,10.85,1.28
	c1.31,0.25,2.57,0.55,3.81,0.86c2.68-1.37,5.63-2.84,8.8-4.37c3.77-1.83,7.79-3.64,11.96-5.39c1.27-0.53,2.55-1.06,3.85-1.58l0,0
	c0,0,0,0,0,0c1.34-0.54,2.69-1.07,4.06-1.6c0.24-0.09,0.48-0.19,0.72-0.28c1.4-0.53,2.8-1.06,4.2-1.57
	c1.35-0.49,2.71-0.96,4.08-1.42c0.08-0.03,0.16-0.05,0.23-0.08c3.27-1.09,6.58-2.09,9.88-2.96l0.17-0.05l0.17-0.04
	c2.73-0.68,5.45-1.02,8.1-1.02h0h0c4.1,0,8.01,0.81,11.56,2.34c0.11-0.11,0.21-0.23,0.32-0.34c1.57-1.66,3.35-3.24,5.45-4.82
	c2.65-1.99,5.63-3.69,8.91-5.06c1.37-0.57,2.79-1.06,4.26-1.5l0,0c0,0,0,0,0,0c0.89-0.27,1.79-0.51,2.7-0.73
	c0.03-0.01,0.06-0.02,0.09-0.02c0.94-0.22,1.89-0.42,2.86-0.59c2.57-0.45,5.26-0.67,8-0.67c0.56,0,1.13,0.01,1.7,0.03
	c0.57,0.02,1.15,0.05,1.72,0.09l0.55,0.04l0.55,0.06c2.15,0.25,4.33,0.58,6.52,0.98s4.4,0.89,6.6,1.44
	c2.72,0.69,5.31,1.52,7.77,2.51c2.45,0.99,4.77,2.12,6.92,3.39c3.59,2.04,6.69,4.47,9.23,7.24c2.37,2.58,4.33,5.38,5.81,8.31
	c0.65,1.28,1.24,2.59,1.74,3.9c0.51,1.32,0.93,2.65,1.29,3.98c0.35,1.34,0.67,2.65,0.96,3.89l0.27,1.19l0.14,1.22
	c0.08,0.66,0.15,1.34,0.21,2.04c0.18,2.08,0.28,4.3,0.31,6.63c0.01,1.35,0.01,2.73-0.01,4.11c-0.02,1.38-0.07,2.78-0.13,4.17
	c-0.13,2.96-0.38,5.9-0.74,8.77c-0.29,2.33-0.64,4.44-1.05,6.42c-0.14,0.66-0.28,1.3-0.43,1.93l-0.1,0.42l-0.12,0.42
	c-0.24,0.85-0.51,1.67-0.8,2.44c1.64,2.03,3.02,4.23,4.13,6.59c0.74,1.58,1.33,3.21,1.77,4.88c0.55,2.09,0.86,4.23,0.94,6.41
	C646.79,183.2,646.7,184.97,646.46,186.75z"/>
<g>
	<path class="st0" d="M51.91,180.53c2.11-0.89,4.3-1.51,6.59-1.86c2.29-0.35,4.51-0.46,6.68-0.32c2.17,0.14,4.2,0.57,6.1,1.28
		c10.5,3.48,19.37,5.25,26.6,5.32c7.23,0.07,12.11-1.46,14.63-4.58c1.03-1.04,1.04-2.14,0.02-3.3c-1.02-1.15-2.72-2.29-5.12-3.41
		c-2.4-1.12-5.32-2.3-8.78-3.53c-3.46-1.22-7.1-2.49-10.92-3.81c-3.83-1.31-7.66-2.68-11.51-4.11c-3.85-1.42-7.41-2.97-10.68-4.65
		c-3.52-1.73-6.8-3.83-9.85-6.31c-3.05-2.47-5.65-5.34-7.78-8.6c-2.14-3.26-3.72-6.91-4.77-10.94c-1.04-4.03-1.35-8.41-0.94-13.12
		c0.13-3.96,0.88-8.35,2.26-13.17c1.37-4.82,3.18-9.63,5.43-14.42c2.25-4.79,4.89-9.38,7.92-13.77c3.03-4.39,6.25-8.25,9.64-11.57
		c1.2-1.31,2.73-2.68,4.6-4.09c1.87-1.41,4.04-2.63,6.52-3.66c2.48-1.03,5.24-1.81,8.3-2.34c3.05-0.53,6.34-0.68,9.86-0.45
		c5.34,0.62,10.77,1.63,16.28,3.01c5.52,1.39,10.29,3.29,14.31,5.72c2.65,1.47,4.78,3.09,6.4,4.85c1.62,1.77,2.9,3.58,3.85,5.44
		c0.95,1.86,1.66,3.69,2.13,5.49c0.47,1.8,0.9,3.52,1.27,5.16c0.35,3.04,0.55,6.4,0.59,10.09c0.04,3.69-0.02,7.43-0.19,11.22
		c-0.17,3.79-0.48,7.47-0.93,11.04c-0.45,3.57-1,6.7-1.65,9.39c-0.7,2.47-1.71,4.15-3,5.02c-1.3,0.88-3.33,1.11-6.07,0.7
		c-16.13-1.84-24.69-7.43-25.69-16.79c-0.32-1.89-0.46-4.14-0.42-6.75c0.03-2.61,0.07-5.21,0.11-7.82c0.03-2.61,0.01-5.08-0.06-7.43
		c-0.08-2.35-0.36-4.22-0.86-5.61c-0.49-1.39-1.2-2.09-2.13-2.11c-0.93-0.02-2.27,0.93-4.03,2.83c-1.53,1.39-3.16,3.33-4.9,5.8
		c-1.74,2.48-3.33,5.21-4.78,8.2c-1.45,2.99-2.63,6.15-3.54,9.48c-0.91,3.33-1.3,6.54-1.17,9.62c0.13,3.09,0.86,5.98,2.17,8.68
		c1.31,2.7,3.48,4.86,6.51,6.47c3.86,2.23,8.04,4.21,12.54,5.95c4.5,1.74,8.98,3.39,13.44,4.97c4.46,1.57,8.7,3.17,12.71,4.79
		c4.01,1.62,7.44,3.46,10.28,5.52c2.84,2.06,4.88,4.42,6.13,7.08c1.24,2.66,1.36,5.78,0.33,9.37c-0.57,2.56-1.54,5.38-2.9,8.46
		c-1.37,3.09-3.44,6.14-6.21,9.14c-2.77,3.01-6.34,5.82-10.71,8.44c-4.36,2.62-9.82,4.74-16.38,6.37
		c-8.73,2.24-17.64,2.64-26.75,1.21c-9.11-1.43-19.05-5.24-29.82-11.42c-5.65-2.97-8.81-5.42-9.49-7.35
		c-0.48-2.08,0.19-3.97,1.99-5.65C47.86,182.47,49.81,181.42,51.91,180.53z"/>
	<path class="st0" d="M158.01,172.13c-1.43-3.21-2.61-6.82-3.53-10.84c-0.92-4.02-1.63-8.34-2.11-12.97
		c-0.48-4.63-0.8-9.37-0.97-14.22c-0.17-4.85-0.22-9.74-0.15-14.68c0.07-4.94,0.22-9.77,0.44-14.49c0.09-2.13,0.63-3.54,1.61-4.2
		c0.98-0.66,2.66-0.87,5.06-0.61c2.22,0.15,4.4,0.49,6.52,1.02c2.13,0.53,4.24,1.25,6.35,2.15c4.36,1.84,6.44,5.01,6.23,9.51
		c-0.28,3.86-0.55,8.02-0.79,12.49c-0.25,4.47-0.4,8.97-0.45,13.51c-0.05,4.53,0.03,8.93,0.24,13.18c0.21,4.26,0.61,8.03,1.18,11.33
		c0.58,3.3,1.37,5.96,2.38,7.99c1.01,2.03,2.33,3.08,3.95,3.14c1.98,0.06,3.61-1.27,4.89-3.97c1.27-2.7,2.26-6.27,2.96-10.69
		c0.7-4.43,1.17-9.48,1.44-15.16c0.26-5.68,0.38-11.49,0.37-17.43c-0.02-5.94-0.13-11.77-0.35-17.48
		c-0.22-5.71-0.41-10.81-0.56-15.3c-0.34-2.11,0.14-3.53,1.43-4.27c1.29-0.73,2.98-1.07,5.08-1c2.09,0.07,4.4,0.41,6.91,1.04
		c2.51,0.63,4.83,1.28,6.96,1.96c1.11,0.4,1.99,0.8,2.63,1.2c0.64,0.4,1.13,0.85,1.46,1.36c0.33,0.51,0.54,1.1,0.63,1.77
		c0.08,0.67,0.12,1.49,0.12,2.43c0.2,10.38,0.19,19.96-0.02,28.72c-0.21,8.77-0.76,16.61-1.65,23.52
		c-0.89,6.92-2.23,12.84-4.01,17.77c-1.78,4.93-4.15,8.76-7.1,11.48c-2.16,1.73-4.39,3.11-6.71,4.11c-2.32,1.01-5.06,1.77-8.23,2.28
		c-6.33,1.02-11.76,0.88-16.29-0.41c-1.96-0.57-3.85-1.34-5.67-2.31c-1.83-0.96-3.52-2.29-5.07-3.98
		C161.16,177.99,159.44,175.34,158.01,172.13z"/>
	<path class="st0" d="M250.76,159.62c0.12,3.84,0.3,7.59,0.56,11.25c-0.09,1.19-0.41,2.03-0.95,2.52c-0.54,0.49-1.76,0.77-3.64,0.84
		c-1.91-0.07-3.77-0.14-5.57-0.2c-1.8-0.06-3.44-0.3-4.93-0.73c-1.48-0.42-2.68-1.12-3.6-2.07c-0.91-0.96-1.37-2.38-1.37-4.28
		c0.24-1.81,0.17-4.74-0.22-8.81c-0.39-4.07-0.95-8.66-1.69-13.78c-0.74-5.12-1.52-10.43-2.35-15.93
		c-0.83-5.5-1.56-10.58-2.19-15.25c-0.64-4.67-1.05-8.6-1.24-11.81c-0.19-3.2,0.02-5.06,0.64-5.56c2.31-1.99,4.89-4.1,7.74-6.32
		c2.84-2.22,5.82-4.33,8.94-6.32c3.12-1.99,6.3-3.78,9.54-5.37c3.25-1.58,6.45-2.78,9.63-3.58c3.17-0.8,6.22-1.12,9.14-0.95
		c2.92,0.17,5.61,0.99,8.06,2.47c2.96,2.09,5.77,4.42,8.44,6.98c2.67,2.56,5.06,5.9,7.17,10.01c0.98,2.04,1.56,4.02,1.75,5.94
		c0.19,1.93,0.07,3.81-0.34,5.66c-0.42,1.85-1.05,3.67-1.92,5.47c-0.86,1.81-1.85,3.6-2.97,5.39c-1.81,2.9-4.11,5.83-6.89,8.81
		c-2.78,2.97-5.89,5.88-9.32,8.71c-3.43,2.83-7.1,5.52-11,8.06c-3.9,2.54-7.8,4.84-11.71,6.9
		C250.55,151.79,250.64,155.78,250.76,159.62z M262.03,118.46c3.15-3.09,5.63-6.11,7.44-9.04c1.81-2.93,2.94-5.62,3.4-8.06
		c0.46-2.44,0.24-4.36-0.67-5.75c-0.4-0.78-1.29-1.25-2.68-1.41c-1.39-0.16-3.06,0.03-5.02,0.55c-1.96,0.52-4.1,1.35-6.44,2.46
		c-2.33,1.12-4.65,2.53-6.96,4.23c-0.25,4-0.41,8.12-0.49,12.37c-0.08,4.25-0.14,8.68-0.17,13.28
		C255.02,124.43,258.88,121.55,262.03,118.46z"/>
	<path class="st0" d="M304.53,68.91c3.45-1.67,7.08-3.3,10.91-4.91c3.82-1.61,7.77-3.16,11.84-4.64c4.07-1.48,8.17-2.77,12.3-3.87
		c3.93-0.98,6.81-0.04,8.64,2.83c1.28,1.46,2.25,2.82,2.91,4.09c0.66,1.27,1.34,2.66,2.05,4.18c0.69,1.74,0.83,2.98,0.42,3.73
		c-0.41,0.75-1.59,1.5-3.53,2.24c-4.05,1.44-8.23,2.91-12.55,4.42c-4.32,1.5-8.86,3.17-13.62,4.99c-0.32,3.36-0.55,6.82-0.68,10.39
		c-0.13,3.57-0.33,7.31-0.59,11.24c2.01-0.75,4.05-1.44,6.09-2.06c2.05-0.62,4.24-1.23,6.58-1.84c1.92-0.51,3.49-0.69,4.69-0.53
		c1.2,0.16,2.35,0.85,3.43,2.06c1.15,1.2,2.1,2.42,2.87,3.66c0.76,1.25,1.47,2.52,2.14,3.83c0.92,1.47,1.22,2.53,0.9,3.19
		c-0.32,0.66-1.41,1.42-3.25,2.28c-3.98,1.72-8.06,3.42-12.23,5.11c-4.17,1.69-8.17,3.41-12,5.17c-0.05,2.35-0.08,4.56-0.11,6.65
		c-0.03,2.09-0.1,4.16-0.21,6.23c3.13-1.3,6.12-2.46,8.99-3.49c2.86-1.02,6-2.04,9.42-3.04c1.91-0.58,3.45-0.79,4.62-0.62
		c1.17,0.17,2.28,0.79,3.33,1.86c1.15,1.2,2.09,2.35,2.82,3.45c0.73,1.11,1.51,2.22,2.36,3.34c0.66,1.31,0.88,2.26,0.66,2.86
		c-0.23,0.6-1.24,1.29-3.03,2.06c-4.24,1.85-8.55,3.75-12.91,5.71c-4.37,1.95-8.54,3.79-12.52,5.5c-2.61,1.33-4.67,1.97-6.18,1.91
		c-1.51-0.06-2.86-0.31-4.06-0.76c-1.35-0.49-2.66-1.01-3.92-1.56c-1.26-0.55-2.76-1.28-4.5-2.19c-1.4-0.7-2.58-1.63-3.54-2.8
		c-0.96-1.16-1.59-2.7-1.88-4.6l-6.02-71.38C297.96,72.14,301.08,70.58,304.53,68.91z"/>
	<path class="st0" d="M383.29,127.83c0.09,4.06,0.19,8.05,0.29,11.97c-0.09,1.19-0.39,2.02-0.9,2.51c-0.51,0.48-1.6,0.73-3.27,0.75
		c-1.98-0.06-3.73-0.05-5.25,0c-1.52,0.06-3.02-0.11-4.49-0.5c-1.49-0.46-2.6-1.17-3.33-2.13c-0.73-0.96-1.23-2.36-1.51-4.19
		c-0.19-1.49-0.49-3.64-0.89-6.47c-0.39-2.83-0.82-6.03-1.28-9.61c-0.46-3.58-0.92-7.43-1.4-11.55c-0.47-4.12-0.91-8.25-1.32-12.39
		c-0.4-4.14-0.73-8.16-0.97-12.08c-0.24-3.92-0.37-7.47-0.37-10.64c0-3.17,0.19-5.84,0.57-8.01c0.38-2.17,0.96-3.59,1.75-4.29
		c3.85-2.93,7.9-5.86,12.14-8.81c4.25-2.95,8.55-5.34,12.9-7.18c4.35-1.84,8.63-2.9,12.84-3.17c4.21-0.27,8.17,0.73,11.91,3.01
		c3.03,2.08,5.88,4.39,8.55,6.95c2.67,2.56,5.06,5.89,7.17,10c1.97,4.44,2.5,8.33,1.59,11.67c-1.33,5.34-4.32,10.66-8.97,15.96
		c-4.65,5.3-10.46,10.58-17.42,15.82c2.01,1.44,4.19,2.94,6.56,4.51c2.37,1.57,4.78,3.13,7.26,4.68c2.47,1.55,4.91,3.03,7.31,4.45
		c2.4,1.42,4.63,2.62,6.68,3.61c1.66,0.86,2.5,1.65,2.52,2.38c0.02,0.73-0.4,1.59-1.26,2.59c-1.02,1.26-1.95,2.07-2.78,2.44
		c-0.83,0.37-1.84,0.81-3.04,1.3c-1.43,0.77-3.08,1.27-4.96,1.52c-1.88,0.25-4.2-0.08-6.95-0.97c-1.85-0.74-4-1.71-6.46-2.89
		c-2.46-1.18-5.03-2.53-7.71-4.03c-2.68-1.5-5.38-3.08-8.1-4.76c-2.72-1.67-5.23-3.41-7.54-5.21
		C383.14,119.52,383.19,123.77,383.29,127.83z M383.94,82.39c-0.12,4.26-0.31,8.82-0.57,13.7c4.42-2.69,8.21-5.62,11.38-8.8
		c3.17-3.17,5.73-6.24,7.68-9.21c1.95-2.96,3.22-5.65,3.84-8.05c0.61-2.4,0.58-4.15-0.11-5.23c-1.28-1.75-3.96-2.15-8.05-1.21
		c-2.01,0.46-4.17,1.21-6.48,2.26c-2.31,1.04-4.67,2.53-7.07,4.47C384.26,74.11,384.06,78.13,383.94,82.39z"/>
	<path class="st0" d="M201.54,278.6c0.4,7.76,0.84,15.22,1.34,22.39c0.49,7.16,1.02,13.86,1.58,20.08
		c0.56,6.22,1.17,11.74,1.81,16.56c0.01,2.07-0.4,3.53-1.25,4.36c-0.85,0.83-2.65,1.27-5.41,1.33c-2.65,0.03-5.36-0.07-8.12-0.3
		c-2.77-0.23-5.37-0.64-7.82-1.23c-3.04-0.69-5.24-1.68-6.58-2.99c-1.34-1.31-2.23-3.41-2.66-6.32c-0.98-4.28-2-9.56-3.04-15.85
		c-1.04-6.29-2.04-13.13-2.99-20.53c-0.95-7.41-1.88-15.1-2.8-23.09c-0.91-7.99-1.72-15.89-2.42-23.7
		c-0.7-7.81-1.3-15.21-1.81-22.19c-0.51-6.98-0.86-13.17-1.06-18.55c0.13-3.95,0.99-6.61,2.59-7.96c1.6-1.35,4.37-2.19,8.34-2.52
		c6.13-0.48,11.37-0.65,15.74-0.5c4.37,0.15,8.81,0.52,13.33,1.09c2.86,0.38,5.19,0.97,6.99,1.77c1.8,0.8,3.3,1.79,4.49,2.95
		c1.19,1.17,2.17,2.53,2.93,4.09c0.76,1.56,1.6,3.33,2.52,5.31c0.23,0.99,0.58,2.15,1.06,3.48c0.48,1.34,1.37,3.7,2.67,7.1
		c1.3,3.4,3.19,8.22,5.66,14.46c2.48,6.25,5.89,14.82,10.24,25.71c0.85-4.35,1.91-9.16,3.18-14.42c1.27-5.26,2.6-10.65,3.99-16.16
		c1.39-5.52,2.86-11.05,4.41-16.61c1.55-5.55,3.08-10.81,4.6-15.78c1.36-5.62,2.6-10.27,3.73-13.94c1.12-3.66,2.47-6.57,4.06-8.73
		c1.58-2.15,3.58-3.62,6-4.41c2.42-0.79,5.67-1.07,9.76-0.86c4.77,0.18,9.85,0.51,15.22,1.01c5.37,0.5,10.72,1.29,16.05,2.37
		c3.53,0.81,5.95,2.13,7.24,3.97c1.29,1.84,1.75,4.71,1.37,8.61c-0.46,5.54-0.96,11.89-1.51,19.06c-0.55,7.17-1.04,14.68-1.49,22.52
		c-0.45,7.84-0.87,15.79-1.27,23.85c-0.4,8.06-0.77,15.77-1.09,23.12c-0.33,7.35-0.6,14.11-0.79,20.28
		c-0.2,6.17-0.3,11.27-0.29,15.31c-0.31,2.15-0.86,3.78-1.65,4.88c-0.79,1.1-2.68,1.66-5.68,1.65c-2.65,0.03-5.38-0.03-8.19-0.2
		c-2.81-0.16-5.33-0.56-7.55-1.21c-2.8-0.62-4.8-1.67-6-3.12c-1.2-1.46-1.84-3.62-1.92-6.49c-0.32-3.39-0.58-7.8-0.79-13.24
		c-0.21-5.44-0.38-11.46-0.52-18.07c-0.13-6.61-0.2-13.55-0.2-20.83c0-7.28,0.19-14.36,0.57-21.27c-1.98,6.46-4.04,13.46-6.17,21
		c-2.14,7.54-4.19,14.94-6.16,22.2c-1.97,7.27-3.74,14.11-5.33,20.54c-1.58,6.43-2.81,11.76-3.68,16c-0.27,1.34-0.52,2.4-0.74,3.2
		c-0.22,0.8-0.57,1.43-1.04,1.89c-0.47,0.46-1.14,0.81-2.01,1.07c-0.87,0.26-2.05,0.38-3.55,0.38c-4.59,0.13-8.66,0.03-12.2-0.31
		c-1.31-0.16-2.46-0.39-3.45-0.68c-0.99-0.29-1.91-0.77-2.76-1.45c-0.85-0.67-1.66-1.55-2.43-2.65c-0.77-1.09-1.65-2.51-2.62-4.25
		c-4.01-7.39-8.21-16.01-12.61-25.86c-4.4-9.84-8.68-20.06-12.85-30.65C200.79,263.06,201.14,270.84,201.54,278.6z"/>
	<path class="st0" d="M381.89,174.89c1.76,2.11,3.27,4.63,4.53,7.55c1.92,4.88,3.36,10.33,4.31,16.35s1.28,12.14,1,18.37
		c-0.28,6.23-1.23,12.26-2.84,18.1c-1.61,5.84-4.05,11.03-7.31,15.57c-2.28,2.79-4.86,4.89-7.74,6.32
		c-2.88,1.43-6.34,2.39-10.39,2.88c-2.7,0.33-5.5,0.52-8.4,0.56c-2.91,0.05-5.64-0.25-8.2-0.91c-2.09-0.54-4.22-1.36-6.37-2.47
		c-2.15-1.11-3.97-2.51-5.46-4.22c-2.39-2.8-4.47-6.12-6.23-9.95c-1.75-3.83-3.11-7.97-4.06-12.42c-0.95-4.45-1.47-9.09-1.56-13.92
		c-0.09-4.83,0.3-9.64,1.17-14.44c0.87-4.79,2.22-9.46,4.06-14.01c1.84-4.54,4.2-8.79,7.08-12.73c1.99-2.43,4.56-4.51,7.7-6.26
		c3.14-1.74,6.29-2.72,9.45-2.94c4.09-0.28,8.07-0.18,11.95,0.32c3.87,0.5,7.2,1.41,9.98,2.74
		C377.69,170.95,380.13,172.78,381.89,174.89z M355.75,186.59c-1.41,2.11-2.68,4.83-3.81,8.15c-1.13,3.32-2.07,6.95-2.81,10.87
		c-0.74,3.93-1.21,7.67-1.42,11.21c-0.22,3.48-0.14,7.02,0.25,10.61c0.39,3.6,1,6.88,1.83,9.86c0.83,2.98,1.91,5.45,3.23,7.41
		c1.33,1.96,2.84,3,4.54,3.11c1.57,0.15,3.02-0.51,4.36-1.99c1.34-1.47,2.54-3.54,3.61-6.19c1.07-2.65,1.93-5.82,2.57-9.51
		c0.65-3.69,1.04-7.62,1.17-11.81c0.15-3.46,0.05-7.21-0.29-11.26c-0.35-4.04-0.91-7.76-1.69-11.15c-0.8-3.46-1.81-6.35-3.03-8.66
		c-1.22-2.31-2.58-3.51-4.06-3.61C358.65,183.5,357.17,184.48,355.75,186.59z"/>
	<path class="st0" d="M463.52,168c-0.67,4.39-1.45,9.07-2.35,14.05c-0.9,4.99-1.87,10.11-2.92,15.39
		c-1.05,5.28-2.13,10.41-3.24,15.41c-1.11,5-2.19,9.69-3.22,14.09c-1.03,4.4-1.98,8.19-2.86,11.38c-0.59,1.89-1.49,3.2-2.7,3.96
		c-1.21,0.75-3.1,1.1-5.67,1.03c-2.59-0.14-5-0.31-7.23-0.53c-2.24-0.21-4.63-0.61-7.17-1.2c-2.83-0.59-5.15-1.71-6.96-3.38
		c-1.81-1.66-3.11-3.28-3.9-4.85c-4.61-8.93-9.23-19.12-13.87-30.57c-4.64-11.44-9.35-24.09-14.14-37.94
		c-0.57-1.84-0.71-3.19-0.44-4.06c0.28-0.87,1.45-1.54,3.53-2.02c2.01-0.46,3.89-0.75,5.66-0.86c1.76-0.11,3.67,0,5.71,0.33
		c4.95,0.61,8.25,3.06,9.9,7.35c1.2,3.3,2.55,7.04,4.05,11.21c1.51,4.18,3.09,8.59,4.74,13.24c1.65,4.65,3.4,9.49,5.25,14.49
		c1.84,5.01,3.73,9.96,5.65,14.84c2.26-11.1,4.28-22.72,6.04-34.87c1.76-12.15,3.57-24.2,5.42-36.15c0.27-1.37,0.8-2.39,1.6-3.05
		c0.8-0.66,1.79-1.03,2.97-1.12c1.18-0.09,2.48,0.01,3.9,0.31c1.42,0.3,2.88,0.71,4.39,1.23c1.56,0.45,2.99,0.94,4.28,1.48
		c1.29,0.54,2.36,1.23,3.21,2.05c0.85,0.83,1.42,1.83,1.73,2.99c0.31,1.17,0.32,2.59,0.05,4.26
		C464.66,159.78,464.19,163.61,463.52,168z"/>
	<path class="st0" d="M494.19,145.08c0.6,0.88,0.88,2.32,0.82,4.3c-0.25,3.34-0.49,7.15-0.71,11.43c-0.22,4.28-0.39,8.79-0.5,13.52
		c-0.12,4.73-0.19,9.56-0.22,14.49c-0.03,4.93-0.06,9.75-0.07,14.46c-0.01,4.71,0.01,9.15,0.06,13.34c0.05,4.18,0.12,7.9,0.21,11.17
		c-0.08,1.26-0.37,2.13-0.88,2.61c-0.51,0.48-1.71,0.72-3.61,0.72c-1.91-0.07-3.74-0.16-5.48-0.27c-1.74-0.11-3.42-0.38-5.05-0.81
		c-1.77-0.4-3.03-1.04-3.78-1.92c-0.75-0.88-1.23-2.25-1.43-4.1c-0.42-2.46-0.85-5.66-1.28-9.61c-0.43-3.95-0.85-8.28-1.24-13.01
		c-0.39-4.72-0.75-9.71-1.09-14.96c-0.33-5.25-0.62-10.4-0.87-15.45c-0.25-5.05-0.42-9.84-0.52-14.38
		c-0.1-4.54-0.14-8.52-0.12-11.95c0.16-2.15,0.73-3.58,1.7-4.27c0.97-0.7,2.6-0.98,4.89-0.85c2.27,0.06,4.79,0.36,7.54,0.89
		c2.75,0.54,5.2,1.21,7.36,2.03C492.16,143.32,493.59,144.2,494.19,145.08z"/>
	<path class="st0" d="M508.97,135.12c3.45-1.67,7.08-3.31,10.91-4.91c3.82-1.61,7.77-3.15,11.84-4.64c4.07-1.48,8.17-2.77,12.3-3.87
		c3.93-0.98,6.81-0.04,8.64,2.83c1.28,1.46,2.25,2.82,2.91,4.09c0.66,1.27,1.34,2.66,2.05,4.18c0.69,1.74,0.83,2.98,0.42,3.73
		c-0.41,0.75-1.59,1.5-3.53,2.24c-4.04,1.44-8.23,2.91-12.55,4.42c-4.32,1.5-8.86,3.17-13.62,4.99c-0.32,3.35-0.55,6.82-0.68,10.38
		c-0.13,3.57-0.33,7.31-0.59,11.24c2.01-0.75,4.04-1.44,6.09-2.06c2.05-0.62,4.24-1.23,6.58-1.84c1.92-0.51,3.49-0.69,4.69-0.53
		c1.2,0.16,2.35,0.85,3.43,2.06c1.15,1.2,2.1,2.42,2.87,3.66c0.76,1.25,1.47,2.53,2.14,3.83c0.92,1.47,1.22,2.53,0.9,3.19
		c-0.32,0.66-1.41,1.42-3.25,2.28c-3.98,1.72-8.06,3.42-12.23,5.11c-4.17,1.69-8.17,3.41-12,5.16c-0.05,2.35-0.08,4.56-0.11,6.65
		c-0.03,2.09-0.1,4.16-0.21,6.23c3.13-1.3,6.12-2.46,8.99-3.49c2.86-1.02,6-2.04,9.42-3.04c1.91-0.58,3.45-0.79,4.62-0.62
		c1.17,0.17,2.28,0.79,3.33,1.86c1.15,1.2,2.09,2.35,2.82,3.45c0.73,1.11,1.51,2.22,2.36,3.34c0.67,1.31,0.88,2.26,0.66,2.86
		c-0.23,0.6-1.24,1.29-3.03,2.06c-4.24,1.85-8.55,3.75-12.91,5.71c-4.37,1.95-8.54,3.79-12.52,5.5c-2.61,1.33-4.67,1.97-6.18,1.91
		c-1.51-0.06-2.86-0.31-4.06-0.76c-1.35-0.49-2.66-1.01-3.92-1.56c-1.26-0.55-2.76-1.28-4.5-2.19c-1.4-0.7-2.58-1.63-3.54-2.8
		c-0.96-1.16-1.59-2.7-1.88-4.6l-6.02-71.38C502.4,138.34,505.52,136.78,508.97,135.12z"/>
	<path class="st0" d="M564.68,189.21c1.33-0.56,2.72-0.95,4.16-1.17c1.44-0.22,2.85-0.29,4.22-0.21c1.37,0.09,2.65,0.36,3.85,0.81
		c6.63,2.2,12.23,3.32,16.8,3.36c4.57,0.04,7.65-0.92,9.24-2.89c0.65-0.66,0.66-1.35,0.01-2.08c-0.64-0.73-1.72-1.45-3.23-2.16
		c-1.51-0.71-3.36-1.45-5.54-2.23c-2.18-0.77-4.48-1.58-6.9-2.41c-2.42-0.83-4.84-1.69-7.27-2.6c-2.43-0.9-4.68-1.88-6.75-2.93
		c-2.22-1.09-4.29-2.42-6.22-3.99c-1.93-1.56-3.57-3.37-4.92-5.43c-1.35-2.06-2.35-4.36-3.01-6.91c-0.66-2.55-0.86-5.31-0.59-8.29
		c0.08-2.5,0.56-5.27,1.42-8.32c0.87-3.04,2.01-6.08,3.43-9.1c1.42-3.02,3.09-5.92,5-8.7c1.92-2.77,3.94-5.21,6.09-7.31
		c0.76-0.83,1.73-1.69,2.91-2.58c1.18-0.89,2.55-1.66,4.12-2.31c1.56-0.65,3.31-1.14,5.24-1.48c1.93-0.33,4-0.43,6.23-0.28
		c3.37,0.39,6.8,1.03,10.29,1.9c3.48,0.88,6.5,2.08,9.04,3.61c1.67,0.93,3.02,1.95,4.04,3.06c1.02,1.12,1.83,2.26,2.43,3.43
		c0.6,1.17,1.05,2.33,1.34,3.47c0.3,1.13,0.57,2.22,0.8,3.26c0.22,1.92,0.34,4.04,0.37,6.37c0.02,2.33-0.02,4.69-0.12,7.08
		c-0.11,2.39-0.3,4.72-0.58,6.97c-0.29,2.25-0.63,4.23-1.04,5.93c-0.44,1.56-1.08,2.62-1.9,3.17c-0.82,0.55-2.1,0.7-3.84,0.44
		c-10.19-1.16-15.59-4.69-16.22-10.6c-0.2-1.19-0.29-2.61-0.27-4.26c0.02-1.65,0.04-3.29,0.07-4.94c0.02-1.65,0.01-3.21-0.04-4.7
		c-0.05-1.48-0.23-2.66-0.54-3.54c-0.31-0.88-0.76-1.32-1.34-1.33c-0.59-0.01-1.43,0.59-2.54,1.79c-0.97,0.88-2,2.1-3.1,3.67
		c-1.1,1.57-2.11,3.29-3.02,5.18c-0.92,1.89-1.66,3.88-2.23,5.98c-0.58,2.1-0.82,4.13-0.74,6.08c0.08,1.95,0.54,3.78,1.37,5.48
		c0.83,1.71,2.2,3.07,4.11,4.09c2.44,1.41,5.08,2.66,7.92,3.76c2.84,1.1,5.67,2.14,8.49,3.14c2.82,0.99,5.49,2,8.03,3.02
		c2.53,1.02,4.7,2.19,6.49,3.49c1.79,1.3,3.08,2.79,3.87,4.47c0.79,1.68,0.86,3.65,0.21,5.92c-0.36,1.61-0.97,3.4-1.83,5.35
		c-0.87,1.95-2.17,3.87-3.92,5.77c-1.75,1.9-4.01,3.67-6.76,5.33c-2.76,1.65-6.2,2.99-10.34,4.02c-5.51,1.41-11.14,1.67-16.89,0.77
		c-5.75-0.9-12.03-3.31-18.84-7.21c-3.57-1.88-5.56-3.43-5.99-4.64c-0.3-1.32,0.12-2.51,1.26-3.57
		C562.12,190.44,563.35,189.78,564.68,189.21z"/>
</g>
</svg>
